<svg viewBox="0 0 200 200" xmlns="http://www.w3.org/2000/svg"
  id="Learn-Programming-1--Streamline-Brooklyn.svg">
  <desc>Learn Programming 1 Streamline Illustration: https://streamlinehq.com</desc>
  <path
    d="M89.043 74.371a0.719 0.719 0 0 0 -0.443 -1.236c-5.456 -0.412 -9.073 4.117 -12.359 8.474l-3.18 -3.418a0.719 0.719 0 0 0 -1.222 0.352c-1.329 6.444 -0.682 12.686 -0.317 19.243 0.378 6.788 1.652 26.134 1.756 29.04a0.565 0.565 0 0 0 0.436 0.531 27.808 27.808 0 0 0 5.869 0.318c2.457 0.043 4.89 0.257 7.358 0.335a0.507 0.507 0 0 0 0.763 -0.473 15 15 0 0 1 -0.032 -2.488 0.518 0.518 0 0 0 -0.3 -0.522c-1.7 -0.788 -2.571 -3.065 -4.685 -3.448 -1.309 -0.237 -2.111 1.263 -2.858 1.525 -0.165 0.057 -0.294 -0.053 -0.47 -0.3a0.565 0.565 0 0 0 -0.682 -0.183 1.106 1.106 0 0 1 -0.949 0.084c-0.515 -0.3 0.239 -1.9 0.571 -2.432 1.664 -2.677 3.227 -1.935 6.388 -1.294a0.616 0.616 0 0 0 0.518 -0.133c0.5 -0.42 0.089 -0.219 -0.207 -17.715 -0.065 -3.811 -0.075 -7.625 0.045 -11.455 0.177 -5.602 -0.1 -10.895 4 -14.805ZM83.435 84.39c-1.8 3.1 -1.586 3.462 -2.2 3.57a0.7 0.7 0 0 1 -0.6 -0.18c-1.7 -1.591 -2.16 -1.952 -3.727 -3.507a80.759 80.759 0 0 1 0.169 8.21 0.507 0.507 0 0 1 -1.014 0.039 41.836 41.836 0 0 1 -0.4 -7.992 22.383 22.383 0 0 0 -2.833 3.27 0.485 0.485 0 0 1 -0.83 -0.491 24.6 24.6 0 0 1 3.9 -5.009 0.7 0.7 0 0 1 1.017 -0.01c1.042 1.051 3.07 2.947 4.017 3.839a35.314 35.314 0 0 1 3.641 -5.4 0.507 0.507 0 0 1 0.805 0.617 32.193 32.193 0 0 0 -1.945 3.044Z"
    fill="#81BA17" stroke-width="1"></path>
  <path
    d="M70.2 69.235c0.459 0.732 0.924 1.487 1.439 1.189 0.432 -0.25 0.235 -0.681 -0.21 -1.805a16.189 16.189 0 0 0 -0.762 -1.636c-0.488 -0.821 -0.76 -1.242 -1.185 -1.065 -0.782 0.325 0.268 2.599 0.718 3.317Z"
    fill="#9b9b9b" stroke-width="1"></path>
  <path
    d="M73.134 72.726c1.837 -0.027 3.286 -2.917 2.37 -3.292 -0.488 -0.2 -0.53 0.2 -1.25 1.02a2.988 2.988 0 0 1 -1.279 0.915c-0.916 0.251 -1.19 -0.139 -1.393 0.364 -0.248 0.611 0.874 1.003 1.552 0.993Z"
    fill="#9b9b9b" stroke-width="1"></path>
  <path
    d="M73.108 65.018c0.43 -0.17 1.009 0.274 1.291 0.99s0.164 1.436 -0.265 1.606 -1.009 -0.274 -1.292 -0.991 -0.164 -1.435 0.266 -1.605Z"
    fill="#9b9b9b" stroke-width="1"></path>
  <path
    d="M81.426 57.266a4.215 4.215 0 0 0 -3.758 -4.528c-0.613 -2.94 -4.483 -3.679 -6.505 -1.6a3.755 3.755 0 0 0 -4.911 2.343c-3.479 0.268 -6.4 3.413 -4.463 7.861a3.956 3.956 0 0 0 1.1 6.01c-0.379 2.19 2.06 3.654 4.227 3.452 1.417 3.085 4.082 5.981 7.446 5.2a10.2 10.2 0 0 0 1.442 2.776 0.507 0.507 0 0 0 0.886 -0.492 27.253 27.253 0 0 0 -1.279 -2.656 5.852 5.852 0 0 0 1.422 -0.887 0.508 0.508 0 0 0 -0.6 -0.819 4.368 4.368 0 0 1 -3.589 0.782c-1.79 -0.455 -3.154 -2.223 -4.119 -3.762a22.336 22.336 0 0 1 -1.7 -3.239 0.488 0.488 0 0 0 -0.256 -0.28 5.259 5.259 0 0 0 1.97 -4.474 7.093 7.093 0 0 0 3.074 -2.133 4.351 4.351 0 0 0 0.736 1.168 3.347 3.347 0 0 0 -2.032 0.967c-0.379 0.426 -0.949 1.418 -0.372 1.713 0.361 0.185 0.365 -0.051 1.282 -0.688a6.491 6.491 0 0 1 2.516 -0.958 4.8 4.8 0 0 0 3.785 -0.06c0.893 -0.3 2.354 0.444 2.225 1.548a1.669 1.669 0 0 1 -0.969 1.294c-0.1 0.049 -0.836 0.761 -0.605 1.292 1.917 4.209 0.745 1.861 2.961 6.166a0.507 0.507 0 0 0 0.912 -0.444c-0.428 -0.936 -0.621 -1.538 -1.615 -4.034a6.236 6.236 0 0 0 2.34 -6.153c1.375 -1.752 0.337 -4.314 -1.551 -5.365Zm-16.6 4.582a3.207 3.207 0 0 0 -0.947 2.85 0.486 0.486 0 1 1 -0.907 0.348 3.427 3.427 0 0 1 0.5 -3.835 3.893 3.893 0 0 1 0.514 -3.785 0.507 0.507 0 1 1 0.829 0.584 3.438 3.438 0 0 0 0.13 3 0.723 0.723 0 0 1 -0.117 0.838Zm3.1 -5.912c-0.287 0.093 -1.667 0.715 -1.794 0.791 -0.574 0.339 -1.048 -0.228 -0.637 -0.733a2.664 2.664 0 0 1 2.244 -1.055 0.507 0.507 0 0 1 0.185 0.997Z"
    fill="#9b9b9b" stroke-width="1"></path>
  <path
    d="M53.986 114.585c-0.752 -3.4 -4.842 -2.949 -4.28 0.536a3.592 3.592 0 0 0 0.731 1.662c1.456 1.786 4.174 0.617 3.549 -2.198Z"
    fill="#9b9b9b" stroke-width="1"></path>
  <path
    d="M55.393 108.569c-1.749 0.1 -3.392 0.8 -3.586 2.532a0.356 0.356 0 0 0 0.243 0.565c2.118 0.309 3.276 -0.034 3.86 -2.477a0.506 0.506 0 0 0 -0.517 -0.62Z"
    fill="#9b9b9b" stroke-width="1"></path>
  <path
    d="M77.867 121.126a6.145 6.145 0 0 1 1.639 -2.7c2.741 -2.619 6.078 2.037 10.025 0.418a7.53 7.53 0 0 0 1.877 -1.173 0.507 0.507 0 0 0 -0.627 -0.8 5.653 5.653 0 0 1 -1.657 0.856c-1.606 0.52 -2.825 -0.125 -4.49 -0.79 -2.337 -0.933 -4.367 -1.295 -6.076 0.553a6.87 6.87 0 0 0 -1.641 3.431 0.486 0.486 0 0 0 0.95 0.2Z"
    fill="#9b9b9b" stroke-width="1"></path>
  <path
    d="M96.537 129.767a16.842 16.842 0 0 0 5.448 3.957 25.5 25.5 0 0 0 6.377 2.033 0.507 0.507 0 0 0 0.243 -0.984 35.832 35.832 0 0 1 -11.4 -5.711 0.486 0.486 0 0 0 -0.668 0.7Z"
    fill="#9b9b9b" stroke-width="1"></path>
  <path
    d="m177.636 62.754 -32.416 -3.037a6.985 6.985 0 0 0 -7.636 6.976v21.135a6.988 6.988 0 0 0 7.631 6.919c33.159 -3.2 32.416 -3.044 32.406 -3.144a6.906 6.906 0 0 0 6.268 -6.777V69.695a6.878 6.878 0 0 0 -6.253 -6.941ZM155.9 85.945a0.8 0.8 0 0 1 -1.13 -0.045c-2.039 -1.969 -3.936 -3.232 -6.487 -5.643a1.124 1.124 0 0 1 -0.2 -1.377 78.523 78.523 0 0 1 5.418 -8.763 0.766 0.766 0 0 1 1.315 0.786c-1.846 3.593 -1.178 2.766 -4.334 8.334a62.582 62.582 0 0 1 5.461 5.578 0.8 0.8 0 0 1 -0.043 1.13Zm10.8 -17.28a63.826 63.826 0 0 1 -2 6.934c-2.217 6.365 -2.842 7.128 -4 10.034a0.8 0.8 0 0 1 -1.5 -0.551c1.056 -3.13 0.791 -3.054 2.755 -8.553 2.076 -5.811 1.839 -4.83 3.294 -8.348a0.765 0.765 0 1 1 1.452 0.484Zm9.212 10.235c-1.427 1.615 -3.211 4 -5.791 6.67a0.8 0.8 0 0 1 -1.215 -1.04c1.8 -2.359 2.414 -3.665 4.71 -6.44a67.729 67.729 0 0 1 -3.76 -5.767 0.765 0.765 0 1 1 1.231 -0.91 61.425 61.425 0 0 1 4.889 6.067 1.13 1.13 0 0 1 -0.064 1.42Z"
    fill="#81BA17" stroke-width="1"></path>
  <path
    d="M167.859 100.8c-35.008 3.91 -34.085 3.727 -34.075 3.827a6.989 6.989 0 0 0 -6.248 6.841v13.416a6.966 6.966 0 0 0 6.477 7.05l34.091 2.484a7.094 7.094 0 0 0 7.607 -7.1v-19.5a7.092 7.092 0 0 0 -7.852 -7.018Zm-17.535 8.471 17.17 -1.529a0.507 0.507 0 0 1 0.133 1c-1.7 0.255 -3.409 0.579 -5.142 0.81a69.872 69.872 0 0 1 -12.136 0.684 0.485 0.485 0 0 1 -0.025 -0.962Zm11.331 13.629c-4.366 0.291 -9.348 1.418 -16.2 1.387a0.486 0.486 0 0 1 -0.047 -0.97c1.293 -0.095 8.5 -0.993 9.668 -1.1 3.175 -0.3 4.1 -0.262 6.534 -0.328a0.507 0.507 0 0 1 0.045 1.011Zm-19 -13.769c1.091 -0.307 1.15 -1.425 2.114 -2.371 1.5 -1.469 1.978 -0.095 1.37 0.229 -0.957 0.618 -0.957 2.189 -2.15 3.071 0.931 1.509 0.541 2.977 2.271 2.981a0.507 0.507 0 0 1 0.064 1.012c-3.038 0.4 -2.768 -2.723 -3.928 -3.673a0.723 0.723 0 0 1 0.258 -1.246Zm-1.558 6.939c0.429 -0.024 5.8 -0.633 6.45 -0.684 0.956 -0.074 1.906 -0.1 2.854 -0.093a0.507 0.507 0 1 1 0.062 1.012c-2.378 0.3 -5.606 1.208 -9.4 0.735a0.485 0.485 0 1 1 0.036 -0.97Zm-3.312 4.639a16.024 16.024 0 0 1 -2.975 0.5 9.733 9.733 0 0 1 -3.039 -0.185 0.486 0.486 0 1 1 0.037 -0.971 33.011 33.011 0 0 1 5.855 -0.353 0.507 0.507 0 1 1 0.122 1.007Zm0.043 -3.57a30.168 30.168 0 0 1 -3.556 0.518 12.124 12.124 0 0 1 -2.432 -0.018 0.486 0.486 0 0 1 -0.071 -0.969 15.906 15.906 0 0 1 2.961 -0.5 17.718 17.718 0 0 1 3.038 -0.039 0.507 0.507 0 0 1 0.06 1.012Zm1.81 -6.495a34.04 34.04 0 0 1 -4.4 0.544 24.434 24.434 0 0 1 -4.428 -0.067 0.485 0.485 0 1 1 -0.021 -0.97c1.426 -0.162 1.541 -0.245 3.5 -0.355 3.594 -0.2 3.563 -0.116 5.256 -0.162a0.507 0.507 0 0 1 0.1 1.01Zm1.286 10.037a0.486 0.486 0 0 1 -0.089 -0.967 40.269 40.269 0 0 1 8.406 -0.983 0.507 0.507 0 1 1 0.118 1.007 33.212 33.212 0 0 1 -8.436 0.946Zm21.106 6.419c-2.5 0.24 -3.383 0.478 -10.422 0.91 -0.811 0.05 -5.144 0.19 -6.5 0.287a0.486 0.486 0 0 1 -0.093 -0.967 92.993 92.993 0 0 1 11.851 -1.068c1.695 -0.074 3.391 -0.072 5.084 -0.173a0.507 0.507 0 0 1 0.08 1.011Zm7.7 1.232c-0.678 0.4 -0.493 1.586 -1.113 2.518a2.463 2.463 0 0 1 -2.516 1 0.507 0.507 0 1 1 0.047 -1.013c1.99 -0.046 1.243 -1.553 2.046 -2.932 -1.225 -1.112 -0.036 -2.96 -0.855 -3.722a0.486 0.486 0 0 1 -0.087 -0.681c0.422 -0.545 1.166 0.186 1.456 0.859 0.539 1.253 -0.165 2.389 0.842 2.657a0.723 0.723 0 0 1 0.18 1.316Z"
    fill="#81BA17" stroke-width="1"></path>
  <path
    d="M95.072 140.151c-3.965 -5.866 -4.955 -7.08 -5.968 -9.348a18.183 18.183 0 0 1 -1.549 -7 0.485 0.485 0 0 0 -0.97 -0.019 25.184 25.184 0 0 0 0.04 3.024c-4.786 -0.19 -9.3 -0.391 -12.423 -0.529 -2.169 -37.812 -2.318 -37.1 -2.042 -41.431 0.423 -6.648 1.926 -7.227 1.224 -7.995a0.719 0.719 0 0 0 -0.708 -0.212c-12.132 3.1 -14.061 12.721 -13.211 25.293 -0.912 -0.154 -1.858 -0.2 -2.731 -0.284 -4.585 -0.424 -9.025 0.04 -13.581 0 -2.7 -0.023 -5.48 0.461 -6.051 3.117 -1.02 4.745 4.884 13.9 7.989 21.315a0.47 0.47 0 0 0 0.288 0.769c-4.328 2.521 -6.828 7.67 -9.279 11.917 -2.269 3.931 -14.12 23.318 -17.726 29.1a0.709 0.709 0 0 0 0.11 0.885c3.125 3.026 6.732 5.453 10.071 8.183a0.717 0.717 0 0 0 1.077 -0.2c1.811 -3.16 4.332 -6.081 6.343 -9.187 5.813 -8.978 11.665 -17.831 17.893 -26.41a46.1 46.1 0 0 1 6.555 0.159c0.982 -6.171 3.631 -12.929 9.786 -14.142a0.507 0.507 0 0 1 0.213 0.991c-3.535 0.822 -5.8 4.4 -7.148 7.758 -2.6 6.458 -2.524 10.388 -7.844 36.395a0.687 0.687 0 0 0 0.474 0.8c4.145 1.249 8.119 3.246 12.3 4.532a0.668 0.668 0 0 0 0.538 -0.063c0.711 -0.422 0.05 -1.556 3.818 -14.489 1.042 -3.576 5.885 -18.907 7.43 -22.276 0.958 -0.1 1.922 -0.147 2.887 -0.166 0.774 -0.015 8.578 0.036 8.866 0.045 2.46 0.071 3 0.329 3.208 0.182a0.51 0.51 0 0 0 0.121 -0.714ZM69.091 79.468a19.933 19.933 0 0 1 2.673 -1.077c-1.393 4.89 -1.188 10.329 -0.843 15.4 -2.008 0.133 -3.212 0.258 -5.2 0.472a68.571 68.571 0 0 1 3.37 -14.795Zm-23.019 46.411c-3.144 -7.922 -8.471 -16.841 -7.592 -20.815 0.408 -1.843 2.771 -2 4.66 -1.98 4.467 0.046 9.043 -0.415 13.465 -0.017 2.3 0.2 3.413 0.076 5.048 1.293 2.777 2.488 3.353 6.427 6.278 13.937a77.663 77.663 0 0 0 3.107 7.836c-10.553 -0.472 -12.593 -0.551 -24.966 -0.254Zm26.185 0.309c-0.153 -0.5 -1.876 -4.395 -3.14 -8.094 -1.586 -4.641 -2.624 -10.043 -4.892 -13.064a8.391 8.391 0 0 0 -3.349 -2.74c-0.569 -8.38 -0.227 -17.809 6.924 -22.133A59.332 59.332 0 0 0 64.224 95a0.712 0.712 0 0 0 0.783 0.773c1.057 -0.107 2.118 -0.219 3.181 -0.318 -1.043 0.924 -2.123 1.941 -3.349 3.184a0.7 0.7 0 0 0 -0.157 0.754c1.253 3.183 5.479 13.773 6.245 15.918a0.507 0.507 0 0 0 0.957 -0.335c-2.451 -7.182 -2.634 -7.5 -5.719 -15.66 1.759 -1.739 3.263 -3.065 4.838 -4.358 0.031 0.438 2.172 31.276 2.172 31.276Z"
    fill="#9b9b9b" stroke-width="1"></path>
  <path
    d="M6.438 171.872c0.316 2.186 9.622 3.524 12.253 4.022 2.359 0.446 4.984 1.018 7.137 -0.172a0.507 0.507 0 0 1 0.5 0.882c-2.446 1.416 -5.071 1.01 -7.858 0.564 -2.02 -0.323 -7.919 -1.067 -11.012 -2.525C4.4 173.2 4.3 170.864 6.6 170.152c3.034 -0.941 8.623 1.3 12.052 0.034a0.486 0.486 0 0 1 0.348 0.907c-3.786 1.514 -8.906 -0.241 -11.656 0.332a1.41 1.41 0 0 0 -0.906 0.447Z"
    fill="#9b9b9b" stroke-width="1"></path>
  <path
    d="M42.862 178.342c0.661 1.556 3.281 1.587 11.585 2.116 3.555 0.2 9.749 1.392 10.855 -2.211a0.507 0.507 0 0 1 0.972 0.289 4.364 4.364 0 0 1 -2.894 2.938c-2.72 1.009 -6.755 0.432 -8.993 0.367 -9.022 -0.483 -11.833 -0.523 -12.841 -2.937 -0.691 -1.651 1.389 -2.388 3.144 -2.734 3.145 -0.621 8.059 -0.341 10.415 -2.264a0.485 0.485 0 0 1 0.622 0.745 8.364 8.364 0 0 1 -3.125 1.583c-3.088 0.904 -8.996 1.045 -9.74 2.108Z"
    fill="#9b9b9b" stroke-width="1"></path>
  <path
    d="M191.006 22.36a7.04 7.04 0 0 0 -6.5 -4.369c-6.542 -0.011 -49.319 -0.053 -55.86 -0.055a7.1 7.1 0 0 0 -7.1 7.115v22.374a7.119 7.119 0 0 0 4.393 6.541c1.552 0.639 -2.431 0.447 58.57 0.447v-0.108a7 7 0 0 0 6.976 -6.88c-0.002 -24.425 0.17 -23.483 -0.479 -25.065ZM133.385 34.6c-3.216 -0.662 -2.572 -4.48 -4.075 -5.86a0.722 0.722 0 0 1 0.18 -1.177c2.531 -1.193 2.245 -2.148 3.546 -5.026a0.485 0.485 0 0 1 0.907 0.346c-0.8 2.557 -0.611 4.109 -3.041 5.558 1.2 1.943 0.73 4.666 2.71 5.171a0.507 0.507 0 0 1 -0.227 0.988Zm7.386 -8.163a0.486 0.486 0 0 1 0.451 -0.518 28.044 28.044 0 0 1 8.318 -0.4 0.507 0.507 0 1 1 0.01 1.014c-0.332 0.027 -3.914 0.426 -6.265 0.422 -0.67 0 -1.329 -0.045 -2 -0.065a0.485 0.485 0 0 1 -0.514 -0.455Zm0.934 13.864a0.485 0.485 0 0 1 0.515 -0.453c0.673 -0.022 1.335 -0.078 2.007 -0.1 2.383 -0.068 6.237 0.11 6.339 0.113a0.507 0.507 0 0 1 0.049 1.013 24.946 24.946 0 0 1 -8.457 -0.059 0.486 0.486 0 0 1 -0.453 -0.515Zm14.366 6.281c-1.066 0 -2.131 0.066 -3.2 0.078 -0.71 0.008 -6.274 -0.064 -6.91 -0.088 -1.066 -0.041 -2.122 -0.114 -3.183 -0.146a0.485 0.485 0 1 1 -0.031 -0.97 73.551 73.551 0 0 1 13.347 0.112 0.507 0.507 0 0 1 -0.023 1.012Zm16.954 -6.193c-2.884 0.048 -4.5 0.333 -10.251 0.322a55.746 55.746 0 0 1 -6.866 -0.416 0.486 0.486 0 0 1 0.063 -0.969c1.111 0.044 10.722 -0.087 11.917 -0.079 1.715 0.011 3.426 0.1 5.138 0.128a0.507 0.507 0 0 1 -0.001 1.012Zm0.253 -7.083c-4.192 0.186 -6.275 -0.04 -9.962 0.032 -2.934 0.057 -18.894 0.585 -21 0.644a0.485 0.485 0 0 1 -0.041 -0.97c2.781 -0.155 11.963 -1.079 21.026 -1.063 2.954 0.005 7.4 0.4 9.942 0.344a0.507 0.507 0 0 1 0.035 1.007Zm1.286 -6.962c-4.221 0.211 -5.83 0.442 -13.05 0.346a55.206 55.206 0 0 1 -7.686 -0.3 0.486 0.486 0 0 1 0.1 -0.966 47.347 47.347 0 0 0 4.9 -0.1c0.9 -0.041 15.7 0.006 15.7 0.006a0.507 0.507 0 1 1 0.037 1.014Zm9.1 17.145c-1.134 1.345 -0.987 5.814 -3.562 6.654a0.507 0.507 0 0 1 -0.338 -0.956c1.464 -0.561 1.322 -3.965 2.389 -6 -1.532 -1.5 -0.542 -3.628 -1.769 -4.776a0.486 0.486 0 1 1 0.617 -0.75 4.257 4.257 0 0 1 1.487 2.94 2.339 2.339 0 0 0 1 1.813 0.721 0.721 0 0 1 0.174 1.073Z"
    fill="#81BA17" stroke-width="1"></path>
  <path
    d="M43.8 173.347c0.406 0 7.232 0.514 7.334 0.522a0.507 0.507 0 0 1 -0.058 1.012c-1.8 -0.069 -4.431 0.038 -7 -0.111a1.753 1.753 0 0 1 -1.256 -0.347 15.988 15.988 0 0 1 -4.142 -9.22 0.486 0.486 0 0 1 0.961 -0.141 19.363 19.363 0 0 0 4.161 8.285Zm-0.082 -0.082c-0.049 -0.04 -0.093 -0.048 -0.111 0.022 -0.012 0.049 0.065 0.059 0.181 0.06l0.119 0.139c-0.016 -0.019 -0.059 -0.081 -0.107 -0.139h-0.012Z"
    fill="#9b9b9b" stroke-width="1"></path>
  <path
    d="M146.734 141.167c-0.057 2.681 -0.746 7 -0.881 10.149 -0.148 3.462 -0.563 24.278 -0.655 26a0.507 0.507 0 0 0 1.012 0.064c0.539 -7.507 0.69 -9.6 1.038 -26.025 0.086 -4.041 0.475 -5.779 0.457 -10.185a0.486 0.486 0 0 0 -0.971 -0.003Z"
    fill="#9b9b9b" stroke-width="1"></path>
  <path
    d="M150.921 144.436c3.072 -0.021 18.039 0.7 21.968 0.778 3.158 0.059 6.312 -0.007 9.465 -0.117a0.507 0.507 0 0 0 -0.026 -1.014c-5.907 0.089 -18.8 -0.812 -25.747 -0.776 -1.895 0.009 -3.786 0.094 -5.68 0.159a0.485 0.485 0 0 0 0.02 0.97Z"
    fill="#9b9b9b" stroke-width="1"></path>
  <path
    d="M150.693 149.073c1.81 0.013 28.023 0.121 30.133 0.155a0.507 0.507 0 0 0 0.027 -1.014c-3.019 -0.111 -6.033 -0.274 -9.051 -0.343 -10.923 -0.248 -19.55 0.2 -21.117 0.231a0.486 0.486 0 0 0 0.008 0.971Z"
    fill="#9b9b9b" stroke-width="1"></path>
  <path
    d="M150.578 153.854c3.36 -0.458 5.667 -0.257 29.057 -0.34a0.507 0.507 0 0 0 0.007 -1.014c-20.82 -0.364 -22.978 -0.641 -29.209 0.394a0.485 0.485 0 0 0 0.145 0.96Z"
    fill="#9b9b9b" stroke-width="1"></path>
  <path
    d="M151.47 158.071c1.87 -0.047 25.72 -0.159 28.588 -0.173a0.507 0.507 0 0 0 0.006 -1.014c-2.868 -0.047 -5.726 -0.184 -8.584 -0.234a195.7 195.7 0 0 0 -20.049 0.451 0.485 0.485 0 0 0 0.039 0.97Z"
    fill="#9b9b9b" stroke-width="1"></path>
  <path
    d="M150.646 163.759c7.394 -1.134 23.028 -1.619 29.983 -1.578a0.507 0.507 0 0 0 0.016 -1.014 167.079 167.079 0 0 0 -18.139 0.074 88.527 88.527 0 0 0 -12.02 1.56 0.486 0.486 0 0 0 0.16 0.958Z"
    fill="#9b9b9b" stroke-width="1"></path>
  <path
    d="M150.074 168.332c4.142 -1.127 9.943 -0.672 14.843 -0.719 2.455 -0.024 15.745 -0.377 17.491 -0.33a0.507 0.507 0 0 0 0.037 -1.013c-5.808 -0.275 -8.09 -0.263 -22.954 -0.106a33.867 33.867 0 0 0 -9.684 1.235 0.485 0.485 0 0 0 0.267 0.933Z"
    fill="#9b9b9b" stroke-width="1"></path>
  <path
    d="M150.51 174.113a36.645 36.645 0 0 1 8.839 -0.875c4.447 -0.078 3.8 -0.189 11.584 -0.191 6.842 0 9.981 0.03 16.284 -0.39a0.507 0.507 0 0 0 -0.058 -1.012c-7.418 0.363 -13.887 -0.4 -27.852 0.228a34.661 34.661 0 0 0 -9.071 1.308 0.486 0.486 0 0 0 0.274 0.932Z"
    fill="#9b9b9b" stroke-width="1"></path>
  <path
    d="m194.452 174.626 -0.535 0.042a25.667 25.667 0 0 1 -6.986 -9.574c-3.848 -9.062 -1.643 -18.1 4.943 -23.93 0.734 0.069 1.469 0.131 2.2 0.222a0.507 0.507 0 0 0 0.131 -1.006q-4.609 -0.636 -9.243 -0.975c-1.851 -0.135 -25.9 -1.369 -28.317 -1.368 -7.584 0 7.187 0.1 -36.326 1.157a146.254 146.254 0 0 1 -10.9 -19.724 18.355 18.355 0 0 0 6.806 -11.129c0.638 -4.179 -2.218 -9.859 -3.782 -13.545 -2.1 -4.94 -3.923 -10.815 -7.6 -14.927 -3.885 -4.342 -11.5 -9.646 -16.427 -6.55 -4.554 2.861 -4.536 8.066 -4.706 13.394 -0.32 10.089 0.379 19.729 0.5 29.441a0.507 0.507 0 1 0 1.014 -0.01c-0.072 -9.95 -0.589 -19.792 -0.207 -29.384 0.19 -4.773 0.1 -9.74 4.139 -12.255a5.526 5.526 0 0 1 4.155 -0.532c-3.46 4.84 -3.894 11.773 -3.406 17.753 -1.111 0.07 -2.18 0.228 -3.3 0.363a0.722 0.722 0 0 0 -0.441 1.209c1.2 1.282 2.59 2.211 3.84 3.337 -2.421 5.943 -3.059 11.682 -4.345 17.4a0.507 0.507 0 0 0 0.988 0.229c0.847 -3.548 1.584 -7.154 2.532 -10.69 1.838 -6.854 2.861 -6.959 2.161 -7.631 -0.954 -0.923 -2.022 -1.707 -3.054 -2.607 0.8 -0.1 1.614 -0.182 2.412 -0.2a0.719 0.719 0 0 0 0.7 -0.789c-0.579 -5.724 -0.474 -13.44 2.935 -18.1 3.44 1.095 7.077 3.947 9.432 6.585 3.48 3.9 5.3 9.717 7.353 14.531 1.473 3.454 4.277 9.013 3.722 12.774a15.8 15.8 0 0 1 -2.27 5.875c-3.565 5.733 -8.9 7.831 -13.688 10.685 -1.576 0.938 -0.857 0.533 -1.972 1.14a7.659 7.659 0 0 0 -0.6 -2.283c-0.041 -0.1 -2.221 -5.186 -2.613 -5.916a16.451 16.451 0 0 0 -1.982 -2.849c1.882 -1.345 3.261 -2.329 5.037 -3.83a40.319 40.319 0 0 0 4.849 -4.268 0.705 0.705 0 0 0 0.054 -0.857c-2.191 -3.241 -4.838 -7.9 -6.677 -11.3a0.507 0.507 0 1 0 -0.9 0.474 120.179 120.179 0 0 0 6.1 11.14 18.726 18.726 0 0 1 -1.4 1.3c-0.1 0.085 -4.354 3.559 -5.107 4.144 -3.4 2.639 -3.556 2.5 -3.613 2.983 -0.108 0.929 1.593 1.019 4.1 6.559 -0.1 -0.023 -0.479 -0.328 -0.779 0.091a6.559 6.559 0 0 1 -1.483 1.453 4 4 0 0 1 -2.467 0.776c-1.76 -0.019 -2.631 -1.27 -3.748 -2.6 -1.262 -1.5 -2.867 -2.995 -4.483 -1.935a4.934 4.934 0 0 0 -1.584 2.128 0.485 0.485 0 0 0 0.882 0.4 3.975 3.975 0 0 1 1.07 -1.333 0.962 0.962 0 0 1 1.122 -0.133c2.211 1.243 3.11 4.907 6.741 4.84a5.073 5.073 0 0 0 3.19 -1.2c0.494 -0.41 0.148 -0.562 0.652 0.61a11.455 11.455 0 0 0 1.806 2.894c0.636 0.639 1.3 0.535 1.632 -0.027a32.9 32.9 0 0 0 4.5 -2.1 30.867 30.867 0 0 0 7.176 -4.7 150.843 150.843 0 0 0 10.753 18.912c-10.736 0.259 -20.664 0.481 -21.862 0.481a0.507 0.507 0 0 0 0 1.014c1.233 0 10.7 -0.133 20.822 -0.3 -3.856 3.206 -5.933 7.673 -7.222 12.458 -2.353 8.732 -2.291 17.859 3.164 25.212 -26.054 -1.042 -32.636 -0.475 -42.749 -1.514a0.485 0.485 0 1 0 -0.1 0.965c2.432 0.262 67.416 3.044 74.368 3.19a0.708 0.708 0 0 0 0.71 -0.559c2.525 -0.127 5.05 -0.249 7.572 -0.426 1.993 -0.139 37.223 -3.8 40.7 -4.111a0.507 0.507 0 0 0 -0.082 -1.011Zm-79.2 -9.659c0.491 3.491 3.223 10.229 6.047 13.417l-5.913 -0.238c-5.412 -6.993 -5.36 -16.344 -3.129 -24.9 1.23 -4.714 3.456 -9.892 7.345 -12.8 0.106 -0.079 -0.551 -0.042 6.12 -0.153 -8.16 4.855 -11.78 15.372 -10.472 24.674Zm19.478 13.96a29.907 29.907 0 0 1 -3.657 -5.987c-3.342 -6.316 -5.559 -13.439 -3.22 -20.166 1.739 -5 5.838 -9.03 9.791 -12.516 0.379 -0.335 -0.836 -0.067 6.277 -0.3 -11.318 5.857 -16.218 18.609 -10.106 29.948 2.205 4.092 5.323 6.784 9.189 9.33 -1.039 -0.026 -4.146 -0.145 -8.276 -0.309Zm10.914 0.28a38.412 38.412 0 0 1 -6.988 -5.229 19.771 19.771 0 0 1 -2.709 -25.167 23.668 23.668 0 0 1 11.866 -9.039c1.662 -0.571 7.109 -0.461 8.818 -0.418s33.546 1.648 33.945 1.68c-5.327 4.86 -7.488 10.621 -6.883 17.159a25.32 25.32 0 0 0 8.835 16.582c-20.328 1.543 -31.528 3.104 -46.886 4.432Z"
    fill="#9b9b9b" stroke-width="1"></path>
  <path
    d="M105.536 158.3c-1.185 -3.09 -3.076 -6.736 -5.885 -8.455 -2.3 -1.4 -4.85 -1.341 -7.362 -1.467a0.452 0.452 0 0 0 -0.443 0.618c-0.6 3.548 -2.154 6.052 -4.357 8.911 -0.534 0.692 0.715 0.987 2.257 4.681a14.53 14.53 0 0 1 1.107 4.386 0.632 0.632 0 0 0 0.626 0.579c2.769 0.027 6.376 0.616 8.858 -1.231 2.2 -1.641 3.73 -5.048 5.155 -7.493a0.612 0.612 0 0 0 0.044 -0.529Zm-5.629 2.221a0.507 0.507 0 0 1 -0.985 -0.244 4.873 4.873 0 0 0 -0.312 -3.414 1.676 1.676 0 0 0 -2.684 -0.063c-0.515 0.8 -0.4 2.394 -0.332 3.339a0.718 0.718 0 0 1 -0.72 0.772c-2.816 -0.077 -2.84 -0.009 -3.1 -0.292a0.668 0.668 0 0 1 -0.18 -0.506 42.806 42.806 0 0 1 0.377 -4.976 0.486 0.486 0 0 1 0.959 0.153 36.631 36.631 0 0 0 0.033 4.183h1.15a5.9 5.9 0 0 1 0.611 -3.451c1.576 -2.396 6.807 -1.622 5.183 4.497Z"
    fill="#81BA17" stroke-width="1"></path>
</svg>