<svg xmlns="http://www.w3.org/2000/svg" version="1.1" xmlns:xlink="http://www.w3.org/1999/xlink"
  xmlns:svgjs="http://svgjs.dev/svgjs" width="2000" height="565" viewBox="0 0 2000 565">
  <g transform="matrix(1,0,0,1,-1.2121212121212466,-0.28407886605970134)">
    <svg viewBox="0 0 396 112" data-background-color="#ffffff" preserveAspectRatio="xMidYMid meet"
      height="565" width="2000" xmlns="http://www.w3.org/2000/svg"
      xmlns:xlink="http://www.w3.org/1999/xlink">
      <g id="tight-bounds" transform="matrix(1,0,0,1,0.2400000000000091,0.05631297875873997)">
        <svg viewBox="0 0 395.52 111.8873740424825" height="111.8873740424825" width="395.52">
          <g>
            <svg viewBox="0 0 661.4765908250849 187.12297415552294" height="111.8873740424825"
              width="395.52">
              <g>
                <rect width="7.763914325097598" height="187.12297415552294" x="237.86829344999367"
                  y="0" fill="#abf91a" opacity="1" stroke-width="0" stroke="transparent"
                  fill-opacity="1" class="rect-yte-0" data-fill-palette-color="primary" rx="1%"
                  id="yte-0" data-palette-color="#abf91a"></rect>
              </g>
              <g transform="matrix(1,0,0,1,265.95659082508496,0.4654800352127353)">
                <svg viewBox="0 0 395.52 186.19201408509747" height="186.19201408509747"
                  width="395.52">
                  <g id="textblocktransform">
                    <svg viewBox="0 0 395.52 186.19201408509747" height="186.19201408509747"
                      width="395.52" id="textblock">
                      <g>
                        <svg viewBox="0 0 395.52 186.19201408509747" height="186.19201408509747"
                          width="395.52">
                          <g transform="matrix(1,0,0,1,0,0)">
                            <svg width="395.52"
                              viewBox="1.5599999999999987 -36.36 169.43000000000004 76.75"
                              height="186.19201408509747" data-palette-color="#abf91a">
                              <svg></svg>
                              <svg></svg>
                              <g class="wordmark-text-0" data-fill-palette-color="primary"
                                id="text-0">
                                <path
                                  d="M12.61-29.23h-11.05v-7.13h30.74v7.13h-11.03v29.23h-8.66zM49.36 0.51v0c-2.853 0-5.313-0.563-7.38-1.69-2.067-1.133-3.653-2.75-4.76-4.85-1.107-2.1-1.66-4.6-1.66-7.5v0c0-2.82 0.557-5.287 1.67-7.4 1.113-2.107 2.683-3.75 4.71-4.93 2.027-1.18 4.41-1.77 7.15-1.77v0c1.947 0 3.723 0.303 5.33 0.91 1.613 0.6 3.003 1.493 4.17 2.68 1.173 1.18 2.087 2.64 2.74 4.38 0.647 1.733 0.97 3.717 0.97 5.95v0 2.17h-23.7v-5.04h15.63c-0.013-0.927-0.233-1.75-0.66-2.47-0.427-0.72-1.01-1.287-1.75-1.7-0.74-0.407-1.59-0.61-2.55-0.61v0c-0.967 0-1.837 0.217-2.61 0.65-0.767 0.433-1.377 1.02-1.83 1.76-0.447 0.74-0.683 1.577-0.71 2.51v0 5.13c0 1.113 0.22 2.087 0.66 2.92 0.44 0.833 1.06 1.48 1.86 1.94 0.807 0.467 1.767 0.7 2.88 0.7v0c0.767 0 1.467-0.107 2.1-0.32 0.627-0.213 1.163-0.527 1.61-0.94 0.453-0.413 0.79-0.923 1.01-1.53v0l7.98 0.23c-0.333 1.787-1.06 3.34-2.18 4.66-1.12 1.32-2.583 2.343-4.39 3.07-1.813 0.727-3.91 1.09-6.29 1.09zM79.49 0.51v0c-2.873 0-5.337-0.59-7.39-1.77-2.053-1.187-3.63-2.837-4.73-4.95-1.107-2.113-1.66-4.56-1.66-7.34v0c0-2.793 0.553-5.247 1.66-7.36 1.107-2.113 2.687-3.76 4.74-4.94 2.06-1.187 4.513-1.78 7.36-1.78v0c2.527 0 4.727 0.457 6.6 1.37 1.873 0.913 3.34 2.2 4.4 3.86 1.06 1.667 1.62 3.617 1.68 5.85v0h-8.11c-0.167-1.393-0.637-2.487-1.41-3.28-0.78-0.793-1.79-1.19-3.03-1.19v0c-1.007 0-1.89 0.28-2.65 0.84-0.753 0.56-1.34 1.39-1.76 2.49-0.42 1.093-0.63 2.443-0.63 4.05v0c0 1.613 0.21 2.973 0.63 4.08 0.42 1.107 1.007 1.94 1.76 2.5 0.76 0.567 1.643 0.85 2.65 0.85v0c0.807 0 1.52-0.173 2.14-0.52 0.62-0.34 1.13-0.847 1.53-1.52 0.407-0.667 0.663-1.48 0.77-2.44v0h8.11c-0.08 2.247-0.64 4.213-1.68 5.9-1.033 1.68-2.483 2.983-4.35 3.91-1.86 0.927-4.07 1.39-6.63 1.39zM105.29-15.55v0 15.55h-8.68v-36.36h8.4v14.09h0.3c0.613-1.68 1.623-2.993 3.03-3.94 1.4-0.947 3.117-1.42 5.15-1.42v0c1.92 0 3.59 0.423 5.01 1.27 1.42 0.847 2.523 2.04 3.31 3.58 0.787 1.54 1.177 3.34 1.17 5.4v0 17.38h-8.69v-15.68c0.013-1.513-0.363-2.697-1.13-3.55-0.773-0.853-1.857-1.28-3.25-1.28v0c-0.913 0-1.717 0.2-2.41 0.6-0.693 0.393-1.23 0.957-1.61 1.69-0.387 0.733-0.587 1.623-0.6 2.67z"
                                  fill="#abf91a" fill-rule="nonzero" stroke="none" stroke-width="1"
                                  stroke-linecap="butt" stroke-linejoin="miter"
                                  stroke-miterlimit="10" stroke-dasharray="" stroke-dashoffset="0"
                                  font-family="none" font-weight="none" font-size="none"
                                  text-anchor="none" style="mix-blend-mode: normal"
                                  data-fill-palette-color="primary" opacity="1"></path>
                                <path transform="translate(0,39.88)"
                                  d="M12.61-29.23h-11.05v-7.13h30.74v7.13h-11.03v29.23h-8.66zM45.29 0h-8.68v-27.27h8.44v4.97h0.28c0.5-1.8 1.31-3.14 2.43-4.02 1.127-0.887 2.437-1.33 3.93-1.33v0c0.4 0 0.813 0.027 1.24 0.08 0.427 0.053 0.823 0.133 1.19 0.24v0 7.55c-0.413-0.14-0.957-0.253-1.63-0.34-0.667-0.08-1.26-0.12-1.78-0.12v0c-1.027 0-1.953 0.227-2.78 0.68-0.82 0.46-1.463 1.093-1.93 1.9-0.473 0.813-0.71 1.763-0.71 2.85v0zM65.36 0.46v0c-1.74 0-3.283-0.293-4.63-0.88-1.34-0.587-2.397-1.473-3.17-2.66-0.78-1.193-1.17-2.687-1.17-4.48v0c0-1.52 0.267-2.8 0.8-3.84 0.533-1.04 1.267-1.887 2.2-2.54 0.94-0.647 2.017-1.14 3.23-1.48 1.22-0.34 2.523-0.567 3.91-0.68v0c1.553-0.147 2.803-0.3 3.75-0.46 0.947-0.16 1.637-0.39 2.07-0.69 0.427-0.3 0.64-0.73 0.64-1.29v0-0.09c0-0.907-0.313-1.61-0.94-2.11-0.627-0.493-1.473-0.74-2.54-0.74v0c-1.147 0-2.07 0.247-2.77 0.74-0.693 0.5-1.137 1.187-1.33 2.06v0l-8.01-0.28c0.24-1.66 0.853-3.143 1.84-4.45 0.987-1.307 2.35-2.337 4.09-3.09 1.733-0.753 3.817-1.13 6.25-1.13v0c1.74 0 3.347 0.203 4.82 0.61 1.467 0.413 2.743 1.007 3.83 1.78 1.093 0.773 1.937 1.723 2.53 2.85 0.6 1.127 0.9 2.41 0.9 3.85v0 18.54h-8.17v-3.8h-0.21c-0.487 0.927-1.107 1.707-1.86 2.34-0.753 0.64-1.633 1.12-2.64 1.44-1.013 0.32-2.153 0.48-3.42 0.48zM68.04-5.22v0c0.933 0 1.777-0.19 2.53-0.57 0.753-0.38 1.353-0.903 1.8-1.57 0.453-0.667 0.68-1.443 0.68-2.33v0-2.6c-0.253 0.133-0.553 0.253-0.9 0.36-0.347 0.107-0.73 0.207-1.15 0.3-0.413 0.093-0.837 0.177-1.27 0.25-0.44 0.073-0.86 0.137-1.26 0.19v0c-0.82 0.133-1.517 0.337-2.09 0.61-0.573 0.273-1.01 0.623-1.31 1.05-0.307 0.433-0.46 0.947-0.46 1.54v0c0 0.9 0.323 1.587 0.97 2.06 0.647 0.473 1.467 0.71 2.46 0.71zM99.68 0.51v0c-2.873 0-5.337-0.59-7.39-1.77-2.06-1.187-3.64-2.837-4.74-4.95-1.1-2.113-1.65-4.56-1.65-7.34v0c0-2.793 0.553-5.247 1.66-7.36 1.107-2.113 2.687-3.76 4.74-4.94 2.053-1.187 4.507-1.78 7.36-1.78v0c2.52 0 4.72 0.457 6.6 1.37 1.873 0.913 3.34 2.2 4.4 3.86 1.06 1.667 1.62 3.617 1.68 5.85v0h-8.11c-0.167-1.393-0.64-2.487-1.42-3.28-0.773-0.793-1.78-1.19-3.02-1.19v0c-1.007 0-1.89 0.28-2.65 0.84-0.76 0.56-1.35 1.39-1.77 2.49-0.42 1.093-0.63 2.443-0.63 4.05v0c0 1.613 0.21 2.973 0.63 4.08 0.42 1.107 1.01 1.94 1.77 2.5 0.76 0.567 1.643 0.85 2.65 0.85v0c0.8 0 1.513-0.173 2.14-0.52 0.62-0.34 1.13-0.847 1.53-1.52 0.407-0.667 0.663-1.48 0.77-2.44v0h8.11c-0.08 2.247-0.64 4.213-1.68 5.9-1.033 1.68-2.483 2.983-4.35 3.91-1.86 0.927-4.07 1.39-6.63 1.39zM129.69-13.28l-5.06 6.12 0.03-10.35h1.21l7.67-9.76h9.84l-11.4 13.99zM125.48 0h-8.68v-36.36h8.68zM143.77 0h-10.03l-7.14-11.33 5.72-6.16zM170.31-18.95v0l-7.97 0.22c-0.08-0.567-0.303-1.073-0.67-1.52-0.367-0.447-0.843-0.797-1.43-1.05-0.587-0.253-1.267-0.38-2.04-0.38v0c-1.007 0-1.86 0.2-2.56 0.6-0.707 0.407-1.053 0.953-1.04 1.64v0c-0.013 0.533 0.203 0.993 0.65 1.38 0.44 0.393 1.233 0.707 2.38 0.94v0l5.26 1c2.72 0.52 4.747 1.383 6.08 2.59 1.333 1.207 2.007 2.803 2.02 4.79v0c-0.013 1.873-0.567 3.503-1.66 4.89-1.1 1.38-2.597 2.453-4.49 3.22-1.893 0.76-4.057 1.14-6.49 1.14v0c-3.9 0-6.97-0.8-9.21-2.4-2.247-1.607-3.53-3.76-3.85-6.46v0l8.58-0.21c0.187 0.993 0.677 1.75 1.47 2.27 0.793 0.527 1.807 0.79 3.04 0.79v0c1.113 0 2.02-0.21 2.72-0.63 0.693-0.413 1.047-0.963 1.06-1.65v0c-0.013-0.613-0.283-1.107-0.81-1.48-0.533-0.373-1.37-0.667-2.51-0.88v0l-4.76-0.9c-2.733-0.5-4.767-1.423-6.1-2.77-1.34-1.34-2.003-3.053-1.99-5.14v0c-0.013-1.82 0.47-3.377 1.45-4.67 0.987-1.3 2.383-2.293 4.19-2.98 1.813-0.687 3.95-1.03 6.41-1.03v0c3.693 0 6.607 0.773 8.74 2.32 2.133 1.547 3.31 3.667 3.53 6.36z"
                                  fill="#abf91a" fill-rule="nonzero" stroke="none" stroke-width="1"
                                  stroke-linecap="butt" stroke-linejoin="miter"
                                  stroke-miterlimit="10" stroke-dasharray="" stroke-dashoffset="0"
                                  font-family="none" font-weight="none" font-size="none"
                                  text-anchor="none" style="mix-blend-mode: normal"
                                  data-fill-palette-color="primary" opacity="1"></path>
                              </g>
                            </svg>
                          </g>
                        </svg>
                      </g>
                    </svg>
                  </g>
                </svg>
              </g>
              <g transform="matrix(1,0,0,1,0,15.626941857142924)">
                <svg viewBox="0 0 217.54391039999996 155.8690904412371" height="155.8690904412371"
                  width="217.54391039999996">
                  <g>
                    <svg xmlns="http://www.w3.org/2000/svg"
                      xmlns:xlink="http://www.w3.org/1999/xlink" version="1.1" x="0" y="0"
                      viewBox="1.5 15.2 97 69.5" enable-background="new 0 0 100 100"
                      xml:space="preserve" height="155.8690904412371" width="217.54391039999996"
                      class="icon-icon-0" data-fill-palette-color="accent" id="icon-0"><path d="M7.2 84.7H92.7C95.9 84.7 98.5 82.1 98.5 78.9V76.4C98.5 75.9 98.3 75.4 98 75L93.7 69.7C93 68.8 92.6 67.8 92.6 66.7V23.7C92.6 19 88.8 15.2 84.1 15.2H15.9C11.2 15.2 7.4 19 7.4 23.7V66.6C7.4 67.7 7 68.8 6.3 69.6L2 75.1C1.7 75.5 1.5 76 1.5 76.5V79C1.5 82.2 4.1 84.7 7.2 84.7M59.2 76.4C59.2 78 57.9 79.3 56.3 79.3H43.8C42.2 79.3 40.9 78 40.9 76.4V75.8H59.3V76.4zM15.9 60.8V23.7H84.1V67.3H15.9zM54.9 32.9L58.8 35.1 45.1 59.1 41.2 56.9zM38.5 38L30.5 46 38.5 54 35.3 57.2 27.3 49.2 24.2 46 27.4 42.8 35.4 34.8zM72.6 42.8L75.8 46 72.6 49.2 64.6 57.2 61.5 54 69.5 46 61.5 38 64.7 34.8z" fill="#8a2be2" data-fill-palette-color="accent"></path></svg>
                  </g>
                </svg>
              </g>
            </svg>
          </g>
          <defs></defs>
        </svg>
        <rect width="395.52" height="111.8873740424825" fill="none" stroke="none"
          visibility="hidden"></rect>
      </g>
    </svg>
  </g>
</svg>