<svg xmlns="http://www.w3.org/2000/svg" fill="none" viewBox="0 0 400 400" id="Page-Not-Found-7--Streamline-Brooklyn" height="400" width="400">
  <desc>
    Page Not Found 7 Streamline Illustration: https://streamlinehq.com
  </desc>
  <g id="page-not-found-7--interface-page-not-found">
    <g id="window">
      <path id="vector" fill="#9b9b9b" d="M78.666 84.954c-0.018 -3.4 -3.144 -6.412 -6.602 -6.362 -3.094 0.046 -6.01 2.792 -5.988 5.64 0.06 7.956 12.63 8.682 12.59 0.722Zm-9.712 -0.91c0.154 -3.742 6.68 -3.094 6.61 0.682 -0.08 4.282 -6.788 3.596 -6.61 -0.682Z" stroke-width="2"></path>
      <path id="vector_2" fill="#9b9b9b" d="M36.962 90.7536c3.09 0.062 5.992 -2.612 6.038 -5.56 0.12 -7.74 -11.424 -8.01 -11.664 -0.424 -0.092 2.92 2.736 5.926 5.626 5.984Zm0.12 -8.824c1.404 -0.096 2.662 1.238 2.712 2.87 0.116 3.75 -5.12 3.912 -5.374 0.188 -0.092 -1.358 1.258 -2.962 2.662 -3.058Z" stroke-width="2"></path>
      <path id="vector_3" fill="#9b9b9b" d="M55.188 90.5876c2.94 -0.004 5.644 -2.746 5.606 -5.68 -0.088 -6.91 -11.04 -7.798 -10.968 0.108 0.028 3.032 2.422 5.576 5.362 5.572Zm3.09 -5.9218c-0.032 4.376 -6.55 4.5298 -6.508 -0.0782 0.036 -3.758 6.538 -4.2198 6.508 0.0782Z" stroke-width="2"></path>
      <path id="vector_4" fill="#9b9b9b" d="M366.152 69.7098c-45.338 -2.18 -344.206 0.634 -344.256 0.634 -2.732 0.024 -4.866 -0.07 -5.16 7.642 -0.43 11.32 -1.146 39.606 -1.21 110.03 -0.074 81.7522 -0.184 79.1322 0.432 81.8942 0.734 3.292 1.184 2.982 12.636 3.156 19.62 0.296 50.474 0.416 85.912 0.428 1.518 -1.972 3.086 -4.01 4.696 -6.12 -52.072 0.382 -90.144 0.89 -96.098 1.232 -3.592 0.206 -3.504 1.198 -2.93 -23.766 9.482 0.268 57.528 0.54 115.658 0.75 1.924 -2.118 4.022 -3.976 6.358 -5.194 -60.73 -0.364 -111.808 -0.566 -121.906 -0.34 0.514 -23.258 1.228 -65.2982 0.35 -141.1582 -0.048 -4.224 0.906 -1.05 46.828 -2.334 6.536 -0.182 251.06 -2.338 312.842 -2.388 -0.174 14.936 -0.796 135.2742 -0.546 148.1102 -11.156 -0.194 -65.868 -0.68 -129.472 -1.156 -2.754 1.76 -5.616 3.344 -8.566 4.746 67.442 0.126 126.798 0.124 138.106 -0.1 0.426 21.676 0.336 21.634 -4.174 21.586 -61.114 -0.64 -136.926 -0.61 -202.64 -0.31 -0.838 1.89 -2.028 3.98 -3.584 6.382 99.518 -0.208 207.83 -0.934 208.586 -1.006 2.878 -0.282 4.916 -2.014 5.046 -4.328 1.612 -28.766 1.544 -135.2242 1.504 -176.8862 -0.022 -21.618 3.89 -21.616 -18.412 -21.504Zm14.194 21.016c-38.51 0.142 -333.674 2.214 -355.29 3.11 -4.634 0.192 -4.614 0.096 -4.68 -4.476 -0.198 -13.642 -1.226 -14.006 3.102 -13.956 31.718 0.356 329.514 -0.722 355.796 -0.722 0.946 1.118 1.166 4.682 1.072 16.044Z" stroke-width="2"></path>
    </g>
    <g id="404">
      <path id="vector_5" fill="#abf91a" d="M122.556 199.2822c2.322 0.382 -0.074 10.1818 2.138 27.9718 0.914 7.35 7.756 6.814 14.854 4.708 1.374 -0.408 2.148 -1.558 2.338 -3.156 0.462 -3.866 0.244 -12.748 0.236 -12.798l0.082 -1.382c-8.738 -14.9878 -11.584 -31.4598 -9.664 -47.1538 -14.722 -0.058 -5.376 19.718 -10.882 19.43 -7.658 -0.4 -19.014 -0.842 -25.986 -0.744 1.636 -4.116 19.958 -39.532 21.302 -42.812 2.758 -6.728 1.67 -10.752 -5.154 -13.268 -6.498 -2.396 -8.932 3.248 -11.768 7.354 -12.484 18.07 -19.346 32.922 -23.3 40.53 -2.69 5.174 -7.208 15.75 -1.944 18.262 7.936 3.7898 46.284 2.928 47.746 3.056l0.002 0.002Z" stroke-width="2"></path>
      <path id="vector_6" fill="#abf91a" d="M285.27 166.4182c5.272 -10.414 10.826 -21.32 11.544 -23.072 2.758 -6.728 1.67 -10.752 -5.154 -13.268 -6.498 -2.396 -8.932 3.248 -11.768 7.354 -0.854 1.236 -1.68 2.456 -2.482 3.66 4.018 7.818 6.724 16.372 7.86 25.326Z" stroke-width="2"></path>
      <path id="vector_7" fill="#abf91a" d="M329.29 189.7824c-4.078 -3.846 -6.934 -1.212 -6.942 -3.738 -0.012 -3.758 -0.34 -7.516 -1.088 -11.174 -0.904 -4.426 -2.28 -6.698 -6.416 -7.226 -18.188 -2.316 -7.558 19.562 -13.346 19.26 -4.67 -0.244 -10.714 -0.504 -16.302 -0.646 -0.59 4.47 -1.54 8.778 -2.816 12.904 10.198 0.224 19.316 0.06 20.016 0.122 2.322 0.382 -0.074 10.1816 2.138 27.9716 0.914 7.35 7.756 6.814 14.854 4.708 1.374 -0.408 2.146 -1.558 2.338 -3.156 0.462 -3.866 0.246 -12.748 0.236 -12.798 0.988 -16.4696 0.124 -16.7436 2.156 -16.8516 5.066 -0.27 8.918 -5.842 5.172 -9.376Z" stroke-width="2"></path>
    </g>
    <g id="cloud">
      <path id="cloud3" fill="#abf91a" d="M335.316 133.61c-15.7 -0.462 -18.886 0.752 -18.57 -2.384 1.232 -12.254 8.168 -5.912 9.43 -9.016 1.578 -3.882 5.394 -6.43 9.48 -6.378 2.33 0.03 2.148 2.078 5.498 -0.73 3.996 -3.352 10.228 -2.196 12.918 2.246 0.892 1.474 1.736 2.23 3.666 2.098 6.308 -0.438 8.968 5.95 8.616 10.32 -0.166 2.064 -1.258 2.572 -2.92 2.686 -9.364 0.648 -18.72 1.434 -28.122 1.158h0.004Zm26.148 -3.248c1.15 0 2.148 -0.278 1.96 -1.724 -0.416 -3.206 -1.99 -7.018 -6.748 -6.292 -3.396 0.518 -3.878 -1.346 -5.016 -3.122 -2.662 -4.16 -8.136 -4.136 -10.698 0.078 -0.784 1.292 -1.756 1.582 -2.782 0.532 -3.024 -3.098 -9.432 0.436 -9.83 3.982 -0.658 5.884 -4.884 -1.208 -8.354 4.178 -3.998 6.204 6.394 2.378 41.468 2.368Z" stroke-width="2"></path>
      <path id="cloud2" fill="#abf91a" d="M48.756 141.4618c-18.23 -0.456 -18.882 0.892 -18.242 -3.596 0.79 -5.544 4.248 -7.42 7.65 -6.71 1.076 0.224 1.478 -0.05 1.798 -1.054 1.8 -5.652 9.238 -6.568 9.708 -6.27 2.562 1.626 4.14 -0.372 6.238 -1.362 4.22 -1.992 9.786 -1.982 12.358 3.612 0.512 1.112 1.134 1.52 2.372 1.338 9.422 -1.39 12.076 12.662 6.594 13.026 -9.414 0.628 -18.806 1.258 -28.474 1.018l-0.002 -0.002Zm26.514 -3.118c4.722 0.002 0.794 -8.866 -4.306 -7.968 -2.816 0.496 -4.904 -0.868 -5.838 -3.572 -1.2 -3.468 -8.698 -3.328 -10.298 0.054 -0.932 1.968 -1.566 2.102 -3.306 0.664 -3.068 -2.534 -9.234 1.096 -9.51 4.178 -0.552 6.192 -4.982 -1.354 -8.322 4.332 -3.63 6.18 5.166 2.296 41.58 2.312Z" stroke-width="2"></path>
      <path id="cloud1" fill="#abf91a" d="M121.442 120.6618c-16.352 -0.41 -16.118 0.826 -15.622 -3.438 0.364 -3.136 2.268 -4.89 5.414 -4.776 1.27 0.046 1.914 -0.328 2.466 -1.504 1.65 -3.502 5.738 -5.122 9.476 -3.85 0.636 0.216 0.926 0.096 1.382 -0.34 3.996 -3.81 9.212 -3.034 11.914 1.81 0.512 0.918 1.05 0.848 1.902 0.768 5.98 -0.566 8.134 5.028 7.624 9.056 -0.124 0.988 -0.934 1.25 -1.886 1.328 -7.778 0.64 -15.544 1.122 -22.672 0.942l0.002 0.004Zm2.3 -1.998c1.736 0.032 15.888 -0.402 17.624 -0.452 2.01 -0.058 2.308 -0.416 2.014 -2.184 -0.546 -3.284 -2.362 -4.824 -5.694 -4.298 -2.318 0.366 -2.698 -1.142 -3.67 -2.6 -2.084 -3.124 -6.31 -3.16 -8.434 -0.046 -0.822 1.204 -1.732 1.462 -2.832 0.444 -1.932 -1.786 -7.048 -0.25 -7.77 3.832 -0.49 2.778 -1.98 1.018 -4.178 1.192 -1.478 0.116 -3.022 1.814 -2.848 3.23 0.322 2.628 3.056 0.642 15.788 0.882Z" stroke-width="2"></path>
    </g>
    <g id="magnifier">
      <path id="vector_8" fill="#9b9b9b" d="M208.716 248.092c-22.524 0.166 -30.924 -8.836 -32.186 -6.524 -4.786 8.766 -9.896 12.442 -8.392 14.788 3.898 6.08 0.51 10.414 -17.296 34.296 -5.366 7.196 -11.672 13.604 -17.458 20.444 -9.572 11.316 -16.244 23.91 -27.544 19.226 -13.918 -5.768 -13.316 -18.112 -10.004 -23.482 6.838 -11.086 15.024 -19.524 39.724 -53.054 5.25 -7.126 9.396 -11.3 15.004 -9.576 1.516 0.466 0.778 0.354 9.41 -13.994 1.06 -1.76 -5.85 -4.66 -13.234 -17.636 -15.54 -27.3078 -11.626 -58.6418 4.978 -80.2358 31.904 -41.488 95.384 -36.284 120.332 9.21 26.01 47.43 -7.412 106.1278 -63.334 106.5378ZM141.54 176.0282c-0.252 35.6378 28.342 67.2018 67.268 67.2638 36.564 0.058 66.582 -29.044 66.814 -66.8778 0.224 -36.276 -28.616 -66.644 -66.23 -67.064 -36.804 -0.41 -67.586 28.848 -67.852 66.678ZM97.568 315.246c0.142 5.216 2.308 8.634 9.938 11.672 7.628 3.04 11.628 -5 23.076 -18.516 7.35 -8.678 15.554 -16.624 21.976 -26.098 14.788 -21.824 20.286 -21.304 -0.856 -32.652 -3.974 -2.134 -6.346 -1.782 -9.318 1.5 -11.428 12.616 -16.166 21.348 -22.682 29.724 -20.48 26.328 -22.302 28.146 -22.134 34.37Zm67.774 -62.134c3.936 -8.554 9.694 -13.314 7.762 -14.372 -3.936 -2.154 -6.552 -4.038 -10.126 -6.974 -2.766 5.024 -5.662 9.452 -8.914 14.19 4.34 2.11 7.762 3.538 11.278 7.156Z" stroke-width="2"></path>
      <path id="vector_9" fill="#9b9b9b" d="M266.268 177.4182c-0.466 31.5758 -25.098 56.4058 -56.288 57.1978 -33.968 0.862 -57.862 -26.344 -59.1 -55.0338 -1.492 -34.616 26.622 -59.386 55.594 -60.42 34.042 -1.216 60.278 25.298 59.792 58.256h0.002Zm-58.364 -54.548c-30.094 0.114 -53.108 23.686 -52.68 53.76 0.444 31.1638 25.338 52.2358 53.136 52.1218 30.496 -0.124 53.66 -24.962 52.858 -54.0698 -0.802 -29.11 -25.268 -51.918 -53.314 -51.812Z" stroke-width="2"></path>
      <path id="vector_10" fill="#9b9b9b" d="M233.412 190.7864c-5.024 0 -4.962 0.208 -5.208 4.862 -0.374 7.0836 -1.058 13.1856 -5.996 16.1076 -3.11 1.84 -7.238 0.568 -9.082 -2.678 -1.3 -2.288 -1.554 -4.816 -1.798 -7.35 -0.752 -7.7696 -0.054 -8.1516 -1.936 -7.4996 -18.656 6.4636 -23.492 13.4216 -24.962 11.5816 -0.584 -0.732 0.07 -1.408 0.502 -1.94 12.366 -15.2156 47.86 -19.7436 53.726 -15.9916 1.142 0.73 1.432 1.972 -0.352 2.562 -1.654 0.548 -3.376 0.116 -4.896 0.344l0.002 0.002Zm-12.524 6.224c0.342 8.4716 -2.922 7.0136 -3.21 -1.458 -0.124 -3.626 -0.086 -3.604 -3.5 -2.642 -0.606 0.17 -0.968 0.32 -0.86 1.058 1.264 8.5516 0.532 13.4776 3.932 14.8816 6.986 2.884 6.804 -9.3216 7.188 -14.9396 0.184 -2.7 0.192 -2.61 -2.55 -2.268 -1.728 0.216 -1.196 0.526 -1 5.368Z" stroke-width="2"></path>
      <path id="vector_11" fill="#9b9b9b" d="M172.51 171.7004c0.034 -0.722 4.93 -6.51 5.02 -6.616 1.514 -1.734 0.316 -1.336 -3.434 -5.888 -0.64 -0.776 -1.416 -1.77 -0.452 -2.728 2.304 -2.292 6.604 5.594 8.414 3.518 4.562 -5.234 5.428 -5.68 6.512 -4.866 0.896 0.672 0.842 1.532 0.196 2.38 -1.246 1.632 -2.316 3.402 -3.812 4.838 -1.312 1.258 -0.45 1.23 4.838 6.852 1.934 2.056 -0.252 4.226 -2.342 2.608 -6.028 -4.67 -5.608 -5.708 -6.914 -4.19 -3.664 4.264 -5.934 6.794 -7.454 5.91 -0.528 -0.308 -0.614 -0.852 -0.568 -1.814l-0.004 -0.004Z" stroke-width="2"></path>
      <path id="vector_12" fill="#9b9b9b" d="M239.978 162.088c-1.532 1.486 -0.85 1.376 4.656 7.138 1.888 1.978 -0.264 4.126 -2.276 2.628 -6.056 -4.51 -5.62 -5.89 -7.06 -4.198 -1.538 1.806 -5.868 7.322 -7.582 5.684 -1.18 -1.126 -0.596 -2.112 4.788 -8.434 1.552 -1.824 -0.8 -1.566 -3.836 -6.026 -1.502 -2.206 0.154 -3.602 2.156 -2.326 7.104 4.534 3.064 6.362 10.472 -1.146 1.544 -1.566 5.718 -0.148 -1.316 6.678l-0.002 0.002Z" stroke-width="2"></path>
    </g>
  </g>
</svg>