<svg xmlns="http://www.w3.org/2000/svg" fill="none" viewBox="0 0 200 200" id="Bug-Found--Streamline-Brooklyn.svg"><desc>Bug Found Streamline Illustration: https://streamlinehq.com</desc><g id="bug-found--work-job-office-company-bug-found"><g id="table"><g id="vector"><path fill="#9b9b9b" d="M2.6684 139.5492C1.7092 139.2203 1.8605 138.601 2.6278 138.3434C4.3091 137.7799 57.1613 137.5761 107.3967 137.5826V139.9887C57.5011 140.2014 4.7592 140.2551 2.6684 139.5491Z" stroke-width="1"></path><path fill="#9b9b9b" d="M197.5143 138.0145C198.3507 138.4585 198.2191 139.3913 196.2285 139.4691C196.2351 139.4691 176.3847 139.6193 149.3928 139.7761L151.3122 137.6429C177.7867 137.7175 197.2085 137.8523 197.5143 138.0145Z" stroke-width="1"></path><path fill="#9b9b9b" d="M117.1251 139.946V137.5859C126.1334 137.5925 134.9421 137.6046 143.228 137.6232L144.6673 139.8024C135.9835 139.8517 126.6738 139.901 117.1251 139.946Z" stroke-width="1"></path></g></g><g id="mouse pad"><path id="Subtract" fill="#9b9b9b" fill-rule="evenodd" d="M144.2661 167.6624C138.543 167.6668 131.2503 167.6536 121.9734 167.6361C111.6706 167.6164 98.92 167.5933 83.1573 167.5846C44.751 167.5594 38.5444 167.806 38.335 166.8019C38.2938 166.6035 38.4859 166.3569 38.7102 166.0499C54.3599 144.6715 54.4882 144.6715 55.2819 144.6748H55.3367C123.4566 144.1081 128.842 144.2593 136.1687 144.4654C138.7546 144.5378 141.5827 144.6178 147.4932 144.6748H147.548C148.0128 144.6726 148.2484 144.6726 151.4865 148.9356C150.8661 148.7887 150.2489 148.6703 149.6395 148.5793C147.9744 146.3081 147.6795 145.9968 147.3496 145.954C147.2904 145.9463 147.2301 145.9474 147.1599 145.9474H55.6776C55.6073 145.9474 55.5464 145.9452 55.4867 145.9529C54.7871 146.0395 54.2401 147.3604 40.3391 166.1354H140.9173C141.3645 166.3678 141.8348 166.5969 142.3281 166.8216C142.9474 167.1055 143.5952 167.3873 144.2661 167.6624Z" clip-rule="evenodd" stroke-width="1"></path></g><g id="computer"><path id="Subtract_2" fill="#9b9b9b" fill-rule="evenodd" d="M170.6222 30.3336C172.5964 31.2493 172.5185 36.5888 173.4503 116.441C173.4601 117.2675 173.4733 118.0337 173.4853 118.7451C173.5982 125.1752 173.6322 127.0595 170.0105 127.1154C169.2553 127.1286 168.2479 127.1549 166.7308 127.1965C163.4971 127.2831 157.9527 127.4311 147.6192 127.6361C146.8947 126.7087 146.1942 125.8165 145.5168 124.956C165.8122 124.6458 169.9162 125.1906 170.8282 123.7349C171.0705 123.349 171.088 122.8228 171.1242 122.1027V122.0983C171.2711 120.0035 171.2382 117.8989 171.0245 115.8096C171.0069 115.6693 171.0431 115.5115 171.0782 115.3558C171.1406 115.084 171.2009 114.8187 170.9707 114.6707C170.9094 114.6312 159.3756 114.8143 142.9485 115.0741C141.244 115.1004 139.4879 115.1289 137.6858 115.1574C135.0791 111.95 133.0447 109.5089 131.4706 107.6268C148.7768 107.4865 162.1927 107.4097 164.6667 107.4251C164.8881 107.4273 165.0548 107.4295 165.1797 107.3571C165.7749 107.0129 165.3891 104.9697 165.2214 93.0656C165.023 79.0084 164.8827 49.4077 164.9583 44.9661C164.9605 44.7975 165.0263 44.6649 164.9945 44.5622C164.8311 44.0303 162.0655 44.2956 134.3754 44.4794C122.0776 44.56 120.4421 44.8044 119.255 44.1859C118.9601 44.0318 118.6915 43.8239 118.2936 43.5465C161.9143 43.3034 164.9517 43.4138 164.9978 43.0933C165.0043 43.0467 164.9484 42.9911 164.9441 42.9239C164.8586 41.5834 164.8958 40.6029 164.9221 39.899C164.9682 38.6689 164.9835 38.2839 164.2601 38.2992C142.8641 38.7568 39.8034 37.7802 36.1411 37.7454C36.0751 37.7449 36.0413 37.7445 36.0409 37.7445C34.9215 37.7326 34.9217 37.7368 34.9636 38.8629L34.9646 38.8889C35.2439 47.2333 35.4298 66.5995 35.5882 83.1043C35.6543 89.9829 35.7156 96.3644 35.7767 101.244C35.8556 107.3385 35.6158 108.7306 36.0611 109.0025C36.1914 109.0825 36.3806 109.066 36.6538 109.0441C43.0541 108.5256 86.3704 108.0203 120.9518 107.7156C121.2182 108.1003 121.5427 108.5738 121.9406 109.1581C122.8767 110.5294 124.2261 112.5047 126.2079 115.3372C88.2019 115.9302 38.7217 116.6537 31.688 116.3215C31.1126 116.2941 30.9996 116.4728 31.0084 116.9935C31.0268 119.3425 31.1841 121.6883 31.4798 124.0188C31.5915 124.8332 31.6582 125.4569 31.9622 125.9283C33.35 128.08 39.684 127.0431 77.8267 126.2856C106.9867 125.7069 122.0589 125.4405 127.7721 125.3396C129.481 125.3089 130.3525 125.2936 130.5136 125.2892C131.4421 125.2629 132.3486 125.2377 133.2343 125.2147C133.8438 126.0609 134.4828 126.9433 135.1515 127.8663C132.8057 127.9068 130.2999 127.9485 127.622 127.9923C118.4855 128.1392 117.0462 128.0559 116.9234 128.4177C116.8949 128.5043 116.9399 128.615 116.9739 128.7597C119.4369 139.2927 118.6762 141.6922 119.4008 142.2896C119.6309 142.4803 120.0124 142.488 120.6942 142.5176C122.3626 142.4825 124.0211 142.785 125.5699 143.4076C128.078 144.5871 130.3218 147.8888 127.3413 148.0477C126.2912 148.1047 106.3093 148.4653 102.9101 148.5267C102.6361 148.5322 102.4694 148.5355 102.43 148.5355C79.9468 148.9235 75.5351 149.2754 75.1694 148.2231C75.0809 147.9677 75.2301 147.6301 75.4172 147.1894C75.733 146.444 76.2146 145.7797 76.8254 145.2481C77.4363 144.7165 78.1603 144.3306 78.9425 144.1201C82.1369 143.1479 83.7753 143.1796 84.6329 143.195C85.3642 143.2092 85.5277 143.2125 85.6039 142.5735C86.9801 130.9991 88.0918 129.0973 87.7652 128.8057C87.6887 128.7366 87.533 128.7575 87.2832 128.7618C87.3063 128.7618 34.5349 130.0312 31.8745 128.8934C28.546 127.4717 28.5445 127.2371 28.3294 93.8811C28.3207 92.5349 28.3116 91.1348 28.3021 89.6784C28.3021 89.6777 28.3016 89.6472 28.3008 89.5881C28.2675 87.2828 27.6066 41.5243 28.0993 33.2261V33.2252C28.3273 29.3697 28.3563 28.8788 72.7667 29.5803C80.3148 29.6991 95.2531 29.6694 111.2113 29.6378C138.0892 29.5845 167.8598 29.5253 170.0982 30.1602C170.2878 30.2139 170.4621 30.2591 170.6222 30.3336ZM113.772 144.0061C113.8728 143.9042 113.9386 143.7749 113.9616 143.6335V143.6291C113.8301 141.3414 113.5703 139.0625 113.1844 136.8033C113.1055 136.2991 113.0332 135.8288 112.9652 135.3914C112.2538 130.7711 112.1036 129.7977 110.9921 129.8975C109.6811 130.018 109.4641 131.3773 109.6449 132.6817C110.2347 136.5084 111.2541 140.2551 112.6846 143.8527C112.7525 143.9777 112.8589 144.0785 112.9871 144.141C113.1165 144.2024 113.2612 144.2232 113.4015 144.1991S113.6711 144.107 113.772 144.0062Z" clip-rule="evenodd" stroke-width="1"></path><path id="vector_2" fill="#9b9b9b" d="M84.7652 43.7889C84.4227 44.1259 84.0135 44.3878 83.5639 44.5577C83.1143 44.7276 82.6341 44.8017 82.1542 44.7754C57.2823 44.8357 43.5978 45.0429 39.2285 44.9245C37.1316 44.8675 37.1908 44.1407 39.2066 44.0596C44.0451 43.8645 60.1115 44.0125 84.7653 43.7889Z" stroke-width="1"></path><path id="Subtract_3" fill="#9b9b9b" fill-rule="evenodd" d="M128.2347 103.7309C148.5751 103.5177 164.2524 103.3509 138.6943 103.544C138.6746 103.5326 138.657 103.5209 138.6395 103.5091C138.6274 103.5006 138.6143 103.492 138.6011 103.4837C156.8237 103.2975 159.4654 103.5063 159.7362 102.8023C159.7954 102.6485 159.7417 102.4512 159.7121 102.1968L160.1505 74.8355C160.1538 74.6112 160.3117 74.4215 160.2832 74.2659C160.1768 73.6874 157.5099 73.5774 134.895 73.8935C134.8928 74.3002 134.8829 74.7065 134.8665 75.1125C155.8854 74.7662 158.5995 74.7471 158.8614 75.5386C158.9228 75.7246 158.8483 75.9556 158.845 76.2375C158.5436 98.8894 158.9371 101.6908 158.1862 102.0416C158.0799 102.0917 157.9483 102.0918 157.7894 102.0927C153.1625 102.1167 141.4741 102.2269 127.1966 102.3728C127.4531 102.7405 127.7941 103.183 128.2347 103.7309ZM115.2189 103.8675C115.0183 103.6513 114.8232 103.4889 114.6204 103.4229C114.3562 103.3369 113.9112 103.4991 113.1669 103.7707C113.0606 103.8094 112.9487 103.8502 112.8304 103.8928C113.6207 103.8845 114.4176 103.876 115.2189 103.8675ZM91.3014 104.1373C90.0796 103.7572 88.8858 103.3086 87.7259 102.7932C63.5636 103.0594 42.4239 103.3072 41.467 103.3434C41.3889 103.3462 41.3202 103.3511 41.2597 103.331C40.7141 103.15 40.8406 100.9424 40.8268 76.9544C40.8268 76.7531 40.8249 76.6078 40.8892 76.5037C41.1401 76.0977 42.3996 76.3148 48.7192 76.2529C55.9571 76.1822 62.7203 76.1108 69.04 76.0399C69.0063 75.6633 68.979 75.2875 68.9582 74.9128C60.431 75.0439 51.1112 75.1857 40.9255 75.3376L40.8924 75.338C39.7195 75.3561 39.7088 75.3562 39.7077 76.5379C39.7077 76.5609 39.8436 103.4629 39.8436 103.4289C39.8436 103.594 39.8435 103.7333 39.8944 103.8506C40.3452 104.8873 44.7904 104.1874 88.6293 104.1874C88.63 104.1781 89.6007 104.1608 91.3014 104.1374Z" clip-rule="evenodd" stroke-width="1"></path><path id="Subtract_4" fill="#9b9b9b" fill-rule="evenodd" d="M134.2526 67.1721C145.0827 67.1189 152.3623 67.077 152.3963 67.0669C158.3517 67.0216 159.7702 67.2231 160.1253 66.7015C160.2492 66.5179 160.2426 66.2445 160.2547 65.8392C160.4147 60.513 160.4136 55.1889 160.3807 49.8682C160.3753 48.965 160.0585 48.97 158.2969 48.9976C157.9374 49.0033 157.5176 49.0099 157.0287 49.0099C157.203 49.188 157.2589 49.409 157.3115 49.6107C157.3893 49.9167 157.4562 50.1784 157.9056 50.1784C158.0459 50.1784 158.2016 50.1573 158.3572 50.1362C158.7387 50.0842 159.1256 50.0318 159.3065 50.288C159.3087 50.2912 159.3109 50.2941 159.3131 50.2972C159.3975 50.4218 159.3493 50.6367 159.0665 64.5469C159.0423 65.7811 159.0303 65.7965 157.853 65.7987C150.3498 65.8169 142.2634 65.8453 133.972 65.8806C134.074 66.3095 134.1672 66.7401 134.2527 67.1721ZM69.3996 67.4316C69.4688 67.0383 69.5449 66.6473 69.6281 66.2586C54.3021 66.3743 43.3494 66.4817 41.4407 66.5419C41.28 66.5469 41.1567 66.5508 41.0622 66.5005C40.5605 66.2337 40.8701 64.4414 40.6986 53.1983C40.6884 52.5413 40.729 52.5417 42.4882 52.5614C43.1796 52.5692 44.1366 52.5799 45.4603 52.5549C57.0729 52.3361 67.4204 52.144 76.6409 51.9735C77.0074 51.5388 77.385 51.1136 77.7734 50.6986C62.992 51.0322 49.5866 51.3494 40.8685 51.5837C40.5847 51.5912 40.3697 51.5933 40.2073 51.6867C39.4994 52.0937 39.7887 54.2353 39.7263 66.1253C39.7197 67.3837 39.7263 67.4056 40.9386 67.4341C43.1523 67.4852 54.6114 67.4734 69.3996 67.4316ZM124.8421 49.6746C135.875 49.4424 145.6209 49.243 152.473 49.1085C152.4533 49.1879 152.4347 49.2631 152.4062 49.3343C152.0576 50.212 150.2347 50.5042 126.1542 51.0259C125.7311 50.564 125.2937 50.1133 124.8421 49.6746Z" clip-rule="evenodd" stroke-width="1"></path><path id="vector_3" fill="#9b9b9b" d="M101.6353 124.0056C101.2823 123.9968 100.9337 123.9179 100.6114 123.7743C100.2886 123.6307 99.9973 123.4246 99.754 123.1681C99.5108 122.9116 99.3205 122.6102 99.1938 122.2802C99.0672 121.9503 99.0068 121.5995 99.016 121.2466C99.0252 120.8925 99.1039 120.545 99.2475 120.2227C99.3912 119.8994 99.5971 119.6078 99.8532 119.3645C100.1095 119.1222 100.4112 118.9315 100.7408 118.8043C101.0707 118.6783 101.4226 118.618 101.7756 118.6267C105.2427 118.6859 105.2581 124.0527 101.6353 124.0056Z" stroke-width="1"></path><path id="vector_4" fill="#9b9b9b" d="M161.4407 39.5444C161.8101 39.5708 162.1554 39.7373 162.4064 40.01C162.6575 40.2826 162.7956 40.6407 162.7912 41.0113C162.7879 41.3818 162.6421 41.7368 162.3856 42.0039C162.128 42.2709 161.7794 42.4298 161.4089 42.4481C159.5356 42.4438 159.6858 39.5641 161.4407 39.5444Z" stroke-width="1"></path><path id="vector_5" fill="#9b9b9b" d="M157.1493 39.8667C157.5176 39.8778 157.8694 40.0239 158.1369 40.2774C158.4044 40.5309 158.5699 40.874 158.6006 41.2413C158.5732 41.5825 158.4219 41.9018 158.1742 42.1388C157.9275 42.3758 157.602 42.5139 157.26 42.5271C157.0824 42.5392 156.9037 42.5158 156.736 42.458C156.5672 42.4002 156.4126 42.3094 156.28 42.1907C156.1474 42.072 156.0399 41.9279 155.9643 41.767C155.8876 41.6061 155.8448 41.4316 155.8372 41.2538C155.8306 41.076 155.8591 40.8985 155.9205 40.7318C155.983 40.5652 156.0783 40.4126 156.2011 40.2833C156.3228 40.154 156.4697 40.0505 156.633 39.9789C156.7952 39.9074 156.9717 39.8692 157.1493 39.8667Z" stroke-width="1"></path></g><g id="mouse"><path id="vector_6" fill="#9b9b9b" d="M161.3991 153.842C166.6486 158.0315 168.4945 169.8164 159.0193 170.6187C150.6556 171.3269 139.3454 166.5366 135.3872 161.8253C127.3128 152.2153 146.3564 141.8358 161.3991 153.842ZM163.1146 167.4037C164.4979 165.9951 165.4296 162.9204 164.1197 161.0032C159.9752 154.9371 153.0628 152.8292 145.7218 152.5452C145.5782 152.5343 145.4357 152.5639 145.3085 152.6318C145.1814 152.6987 145.0772 152.8007 145.006 152.9256C144.2387 153.9319 142.0135 154.2772 141.1442 153.3696C140.0908 152.2734 139.0242 153.1218 137.198 153.3378C135.9144 153.489 135.397 154.4153 134.9202 155.4205C134.838 155.5597 134.8106 155.7252 134.8435 155.8831C134.8763 156.042 134.9673 156.1823 135.0989 156.2766C139.7565 160.8235 143.752 161.605 150.0801 161.3189C155.6968 161.0723 160.6065 162.334 163.1146 167.4037ZM137.6157 152.4882C140.6422 152.0498 140.3857 152.1594 140.6443 151.8897C141.0894 151.3548 141.712 150.9975 142.3993 150.8846C143.0855 150.7706 143.7903 150.9098 144.3833 151.2737C146.6261 152.9914 154.08 149.9857 163.4631 158.641C161.9581 152.5178 145.4159 145.8411 137.6156 152.4883Z" stroke-width="1"></path></g><g id="magnifier"><path id="vector_7" fill="#98dd18" d="M101.1212 40.487C132.1557 40.3028 144.8481 76.3611 126.0797 95.6952C125.1699 96.6324 127.9618 98.0366 126.8974 99.8935C126.1816 101.1409 126.6552 101.7909 127.4564 102.7237C132.3815 108.4522 136.9317 114.4887 141.7065 120.3367C154.4965 135.9877 154.1173 135.2851 152.4741 137.5837C150.7521 139.9953 148.5433 141.7492 145.5924 141.5475C144.277 141.4565 120.076 105.964 119.3427 106.1909C116.5869 107.0414 115.7451 103.7947 114.6138 103.4231C114.5941 103.4165 98.5693 109.9594 83.8665 100.7452C73.3565 94.1529 67.1402 82.1006 69.6559 66.5691C72.1233 51.3434 87.5967 39.7504 101.1212 40.487ZM101.746 45.4099C97.9692 45.3498 94.2206 46.0699 90.7349 47.5252C87.2493 48.9805 84.1014 51.1397 81.4886 53.8675C78.8758 56.5953 76.8542 59.8332 75.5504 63.3782C74.2465 66.9234 73.6884 70.6995 73.9112 74.4702C75.4173 101.3426 108.688 108.9706 123.6615 91.3785C139.4506 72.827 124.9002 45.6411 101.7482 45.4099H101.746ZM146.294 139.7585C148.4096 139.7311 152.4675 136.2979 151.0886 134.6767C147.6905 130.6801 128.6962 106.6096 125.844 102.715C125.0767 101.6638 125.0953 103.1732 121.569 105.1726C120.2875 105.8993 120.9529 105.6932 127.1517 114.2629C145.8445 140.1005 145.3502 139.9558 146.2962 139.7585H146.294ZM116.0794 102.727C118.0525 104.3165 118.321 104.7571 119.0916 104.1761C120.1593 103.3694 121.775 103.4242 124.4902 100.2738C125.3672 99.2599 125.3211 98.8839 124.5538 97.8305C123.8534 96.8702 124.2589 98.6548 116.0794 102.727Z" stroke-width="1"></path><path id="vector_8" fill="#98dd18" d="M147.0076 137.267C146.1306 137.3711 134.4017 121.8714 133.8953 121.2104C133.6147 120.8432 133.3746 120.4727 133.8504 120.0781C134.3754 119.6396 134.6363 120.0846 134.8983 120.4222C147.2685 136.3626 146.306 136.8899 148.0226 135.7137C148.4161 135.4693 148.7647 135.1601 149.0552 134.7984C149.3084 134.4542 149.6888 134.5496 149.5551 135.0681C149.3161 135.5986 148.9642 136.07 148.5247 136.4492C148.084 136.8296 147.5666 137.108 147.0076 137.267Z" stroke-width="1"></path><path id="vector_9" fill="#98dd18" d="M123.1858 105.9607C123.7854 106.0331 123.5782 105.8664 129.515 113.4145C133.0041 117.8463 133.379 118.0776 132.6314 118.6958C131.9967 119.2208 132.2916 119.3897 123.4237 107.5643C122.9205 106.8956 122.3703 106.1164 123.1858 105.9607Z" stroke-width="1"></path></g><g id="bugs"><path id="f" fill="#98dd18" d="M155.2101 60.9312C154.9997 61.26 155.835 61.5231 156.1145 62.1994C155.904 62.2264 155.6914 62.2091 155.4886 62.1487C155.2847 62.0883 155.0972 61.9861 154.9361 61.8487C154.7662 61.7729 154.5809 61.736 154.3946 61.7406C154.2082 61.7451 154.0263 61.791 153.8597 61.875C153.693 61.9589 153.5484 62.0789 153.4344 62.226C153.3193 62.3731 153.2392 62.5437 153.1998 62.7256C153.1943 63.134 153.0288 63.5239 152.7394 63.8119C152.7054 63.7395 152.6418 63.6716 152.6561 63.6223C153.1044 61.9605 151.435 61.7588 150.7444 60.8819C150.4747 60.542 150.1218 61.2896 150.5087 61.9934C150.9165 62.7344 150.8628 63.6508 150.4133 63.6924C150.0154 63.7297 150.2423 63.254 150.1557 63.0194C149.9584 62.4866 149.7896 61.9462 149.6142 61.4047C149.2646 60.3195 150.0472 59.162 148.8667 59.4601C147.332 59.846 146.4354 58.752 145.2636 57.5144C144.7966 57.0212 145.2756 56.7373 145.6626 56.8754C146.2775 57.2313 146.864 57.6345 147.4164 58.0812C148.3767 58.695 148.3569 57.5232 147.833 57.2996C146.2468 56.6233 146.2863 54.7784 145.2789 54.3805C144.8054 54.1953 145.0345 53.7601 145.462 53.8324C146.3586 53.9859 146.5855 54.4967 147.6247 55.8713C147.674 52.6924 150.546 50.9156 153.3949 52.9862C152.9564 49.0499 154.354 49.5596 154.1622 50.1121C153.6141 51.7454 154.7936 52.836 154.3683 53.9486C154.1491 54.5143 154.9098 55.275 155.1652 54.1383C155.2375 53.8171 155.0358 51.2576 155.9873 51.582C156.3162 51.6916 156.086 51.9777 156.0827 52.1959C156.0323 54.8201 156.291 54.9604 155.5642 55.8866C154.5623 57.1615 155.5434 56.9039 156.5672 58.5481C156.8182 59.0592 157.135 59.5355 157.5088 59.9655C158.1753 60.599 157.1175 60.8424 156.303 59.6169C154.821 57.3741 155.8799 59.8811 155.2101 60.9312Z" stroke-width="1"></path><path id="g" fill="#98dd18" d="M53.209 98.7083C49.9983 100.8403 46.9893 99.1259 46.6188 96.1696C46.5969 95.9887 46.6846 95.7377 46.4906 95.6467C46.2363 95.5294 46.1157 95.7848 45.9765 95.9416C45.3594 96.6343 43.4148 97.9048 43.1922 97.0487C43.0092 96.3417 43.9398 97.1375 45.4942 94.9287C45.8248 94.3905 46.3301 93.9822 46.9258 93.7723C47.8027 92.9688 47.1614 92.4284 46.3865 92.9293C45.0228 93.8117 44.4693 94.4004 43.8236 94.2359C43.4948 94.1537 43.2756 93.8293 43.6241 93.6791C45.0426 93.0609 45.2684 91.2555 47.9496 91.4396C48.1148 91.4623 48.283 91.4455 48.4405 91.3908C48.5979 91.336 48.7401 91.2448 48.8557 91.1245C48.9711 91.0042 49.0565 90.8584 49.1047 90.6988C49.1531 90.5392 49.1629 90.3705 49.1335 90.2064C48.9657 89.1443 50.0104 87.7554 50.1134 86.6143C50.1551 86.1298 50.5519 86.1474 50.6801 86.5935C51.0868 88.0185 49.835 89.1421 50.3765 89.4523C50.6297 89.597 50.793 89.2681 50.9651 89.1125C52.7793 87.4595 52.6675 88.8998 52.8286 87.4255C52.8615 87.135 52.8834 86.8149 53.2145 86.8061C53.5455 86.7974 53.4721 87.1503 53.5039 87.3751C53.4967 87.6492 53.5659 87.9198 53.7039 88.1568C53.8419 88.3937 54.0431 88.5876 54.285 88.7166C54.5269 88.8458 54.8001 88.9049 55.0737 88.8874C55.3474 88.87 55.6107 88.7767 55.8343 88.6181C56.7901 88.1259 56.9436 88.537 56.8395 88.5885C55.2248 89.3953 55.9308 90.9595 55.6556 92.2058C55.5712 92.584 56.1697 92.5862 56.3758 92.3154C57.108 91.3464 57.1957 90.5868 58.2217 90.5309C58.5605 90.5123 58.7808 90.7282 58.4541 91.0044C57.381 91.9132 57.005 93.4675 55.5712 94.0572C55.1591 94.2261 55.1711 94.6525 55.5351 94.9133C57.0697 96.0095 56.6433 97.5902 56.4054 99.5172C56.3758 99.7551 56.3934 100.0785 56.0897 100.1102C55.1525 100.21 55.6239 98.5614 55.3794 97.189C55.2029 96.2024 54.3929 96.6858 54.4828 97.246C54.8116 99.2311 53.5466 100.0467 53.4863 101.8773C53.4677 102.4253 53.061 102.4122 52.8582 102.0011C52.4812 101.2283 52.707 100.7811 53.209 98.7083Z" stroke-width="1"></path><path id="vector_10" fill="#98dd18" d="M112.1003 67.4588C115.0172 70.9073 114.5371 71.3896 115.4875 71.5146C119.6277 72.0364 122.3659 75.6044 125.8626 75.1319C126.6891 75.0223 126.9522 75.5923 126.1301 76.113C123.0828 78.0412 120.0738 74.7976 117.021 74.2309C116.4729 74.129 116.2723 74.3032 116.4872 74.9193C117.4189 77.6027 118.1632 81.7648 116.3984 84.4055C114.8067 86.7885 109.6022 76.4704 107.4186 78.2231C105.3063 79.92 110.1656 84.685 111.7539 86.8499C112.4412 87.7871 112.4292 87.8014 111.4656 88.3648C106.7379 91.1315 103.4154 89.3513 100.025 87.4648C100.1675 89.587 101.5103 90.5593 102.2491 93.5124C102.9879 96.4654 100.5205 98.193 100.7858 96.3448C100.9096 94.6683 100.4587 92.9994 99.5065 91.6138C96.2718 85.5411 97.8722 85.7592 96.8253 84.7935C94.633 82.7733 94.7569 81.7725 93.8657 81.8766C91.9365 82.0959 94.793 89.4105 91.2163 91.6237C90.6408 91.9788 90.2122 91.5524 90.4939 91.0931C92.6435 87.5854 89.811 82.7711 92.0066 78.5476C92.0941 78.4062 92.1483 78.2468 92.1651 78.0813C92.1819 77.9159 92.1608 77.7487 92.1035 77.5926C92.0461 77.4365 91.954 77.2955 91.8341 77.1802C91.7141 77.065 91.5696 76.9786 91.4114 76.9275C88.8212 76.0977 86.9632 74.2265 84.9594 72.5614C82.1094 70.197 80.8433 71.4247 80.8192 70.4667C80.7929 69.4407 83.5223 69.536 84.7599 70.2562C86.7812 71.4324 90.8118 75.4608 90.8677 73.0942C90.8984 71.7843 91.8751 71.2976 102.7062 62.103C102.8893 61.9514 103.1009 61.8379 103.3278 61.7696C103.5558 61.7012 103.7947 61.6793 104.0304 61.7051C105.8314 61.8246 104.2255 59.3724 103.1535 57.9178S100.7956 54.9582 100.982 52.8908C101.1683 50.8235 102.2634 50.9002 102.3335 52.4239C102.4804 55.6104 107.047 58.1152 107.8593 62.627C107.9459 63.2975 108.2616 63.9174 108.7538 64.3813C109.2448 64.8453 109.8828 65.1247 110.5569 65.1722C112.5816 65.4982 114.5831 65.9545 116.5486 66.5381C119.1245 67.2111 120.1933 65.7708 120.6044 66.5238C121.0154 67.2769 118.9601 68.806 115.6399 68.2294C114.4856 67.8669 113.3006 67.609 112.1004 67.4588ZM97.654 74.4216C97.5618 74.2454 97.435 74.0894 97.2812 73.9632C97.1274 73.8369 96.9497 73.7431 96.7588 73.6871C96.5678 73.6311 96.3676 73.6142 96.1699 73.6374C95.9724 73.6607 95.7814 73.7235 95.6087 73.8221C95.4358 73.9208 95.2848 74.0533 95.1643 74.2117C95.044 74.3701 94.9567 74.5512 94.9079 74.744C94.8591 74.9369 94.8497 75.1376 94.8802 75.3343C94.9108 75.5309 94.9806 75.7194 95.0857 75.8883C96.24 78.1782 98.1341 79.875 99.8781 81.6881C100.3331 82.1627 102.475 82.4565 97.654 74.4216Z" stroke-width="1"></path><path id="vector_11" fill="#98dd18" d="M100.6662 59.3077C102.761 60.5375 98.9441 63.1815 91.7039 69.1183C90.1167 70.4205 89.2474 70.0829 88.5382 68.7445C84.9077 61.8891 92.309 54.4034 100.6662 59.3077Z" stroke-width="1"></path><path id="vector_12" fill="#98dd18" d="M95.056 54.7191C95.032 55.5873 94.7461 56.4278 94.2361 57.1307C94.0278 57.3653 93.8261 57.5987 93.4929 57.4376C92.4647 56.941 94.4487 55.2551 92.1183 52.3558C90.6396 50.5099 94.4805 51.1182 95.056 54.7191Z" stroke-width="1"></path><path id="vector_13" fill="#98dd18" d="M86.1542 62.6392C83.2636 62.6293 81.8287 59.2269 82.5369 58.8783C83.097 58.6042 84.3653 61.337 87.3698 61.337C87.9344 61.337 87.7919 61.8204 87.5891 62.1317C87.2602 62.6579 86.6946 62.6414 86.1542 62.6392Z" stroke-width="1"></path></g></g></svg>